<svg id="Capa_1" enable-background="new 0 0 512.02 512.02" height="512" viewBox="0 0 512.02 512.02" width="512" xmlns="http://www.w3.org/2000/svg"><path d="m347.124 152.012h51.883c6.606 24.509 28.981 42.601 55.503 42.601 31.702 0 57.494-25.84 57.494-57.601s-25.792-57.601-57.494-57.601c-26.523 0-48.897 18.092-55.503 42.601h-51.87c-7.245-48.162-48.819-85.203-98.866-85.203-36.206 0-67.978 19.386-85.526 48.343l-48.049-20.021c3.291-25.17-10.436-50.482-34.92-60.684-14.171-5.904-29.789-5.931-43.98-.073-14.217 5.869-25.295 16.936-31.193 31.164-12.154 29.318 1.76 63.088 31.018 75.279 7.116 2.965 14.595 4.448 22.077 4.447 7.418 0 14.839-1.458 21.904-4.375 9.465-3.907 17.527-10.129 23.608-18.044l48.02 20.009c-1.919 7.74-2.945 15.831-2.945 24.157 0 5.789.494 11.464 1.439 16.987l-54.743 18.231c-4.555-3.912-9.739-7.132-15.442-9.502-14.176-5.892-29.795-5.904-43.98-.033-29.287 12.12-43.283 45.857-31.199 75.205 5.864 14.241 16.916 25.335 31.118 31.238 7.102 2.952 14.565 4.428 22.029 4.428 7.436 0 14.873-1.465 21.951-4.395 27.913-11.551 41.917-42.737 32.71-71.045l47.029-15.662c9.625 18.863 25.029 34.291 43.872 43.902l-.002 49.644h-15.76c-24.976 0-45.295 20.326-45.296 45.309l-.007 80.761c0 2.774.769 5.495 2.222 7.858l42.292 68.781c12.629 20.541 35.45 33.301 59.557 33.301h156.062c40.446 0 73.352-32.919 73.352-73.382v-113.502c0-24.989-20.323-45.318-45.303-45.318-7.515 0-14.609 1.84-20.854 5.093-7.703-14.05-22.634-23.596-39.751-23.596-7.515 0-14.609 1.84-20.854 5.093-7.704-14.049-22.635-23.596-39.751-23.596-5.368 0-10.522.939-15.304 2.662v-19.221c28.122-14.429 48.571-41.805 53.452-74.24zm107.386-42.601c15.16 0 27.494 12.382 27.494 27.601s-12.333 27.601-27.494 27.601c-15.16 0-27.493-12.382-27.493-27.601s12.334-27.601 27.493-27.601zm-371.429-41.173c-2.825 6.815-8.126 12.114-14.927 14.921-6.774 2.796-14.229 2.784-20.996-.035-14.015-5.84-20.674-22.034-14.843-36.098 2.826-6.815 8.127-12.115 14.928-14.922 3.373-1.393 6.914-2.088 10.456-2.088 3.571 0 7.142.708 10.539 2.124 14.016 5.84 20.674 22.033 14.843 36.098zm-15.094 173.212c-6.772 2.802-14.228 2.797-20.995-.016-6.794-2.824-12.083-8.136-14.892-14.958-5.797-14.079.901-30.256 14.93-36.063 3.38-1.398 6.929-2.098 10.479-2.098 3.563 0 7.126.705 10.516 2.113 6.794 2.824 12.083 8.136 14.892 14.958 5.797 14.081-.901 30.258-14.93 36.064zm225.684 78.397.001-31.72c0-8.446 6.865-15.317 15.302-15.317 8.438 0 15.302 6.872 15.302 15.317v50.222c0 8.284 6.716 15 15 15s15-6.716 15-15v-31.718c0-8.447 6.865-15.318 15.303-15.318s15.302 6.872 15.302 15.318v59.473c0 8.284 6.716 15 15 15s15-6.716 15-15v-40.97c0-8.447 6.865-15.318 15.303-15.318s15.303 6.872 15.303 15.318v113.503c0 23.921-19.447 43.382-43.352 43.382h-156.061c-13.761 0-26.79-7.286-34.001-19.015l-40.069-65.167.006-76.518c0-8.442 6.862-15.311 15.296-15.311h15.759v13.837l.005 31.87c0 .125.001.25.004.374v.173h.005c.29 9.843 7.866 15.144 14.995 15.144h.007c7.168-.003 14.791-5.312 14.991-15.152h.001c0-.011 0-.024 0-.039.002-.107.003-.215.003-.324l.004-11.006c.001-8.958.001-24.309-.003-49.878 0-.179-.003-.356-.009-.533l.005-116.147c0-8.443 6.862-15.312 15.31-15.312 8.428 0 15.286 6.861 15.286 15.294l.003 145.538c0 8.284 6.715 15 15 15 8.282 0 14.998-6.716 14.999-15zm-.003-129.472v-16.067c-.001-24.974-20.317-45.292-45.299-45.292-24.975 0-45.295 20.326-45.296 45.311l-.001 16.227c-15.149-12.887-24.787-32.102-24.787-53.541 0-38.71 31.396-70.203 69.987-70.203s69.987 31.493 69.987 70.203c-.001 21.343-9.556 40.479-24.591 53.362z"/></svg>