<svg id="Capa_1" enable-background="new 0 0 512 512" height="512" viewBox="0 0 512 512" width="512" xmlns="http://www.w3.org/2000/svg"><path d="m497 13.668h-482c-8.284 0-15 6.716-15 15v377.795c0 8.284 6.716 15 15 15h182.61v46.869h-4.321c-8.284 0-15 6.716-15 15s6.716 15 15 15h125.422c8.284 0 15-6.716 15-15s-6.716-15-15-15h-4.321v-46.869h182.61c8.284 0 15-6.716 15-15v-377.795c0-8.284-6.716-15-15-15zm-467 30h452v269.735h-55.794v-192.071c0-8.284-6.716-15-15-15h-60.412c-8.284 0-15 6.716-15 15v192.071h-34.588v-152.071c0-8.284-6.716-15-15-15h-60.412c-8.284 0-15 6.716-15 15v152.071h-34.588v-112.071c0-8.284-6.716-15-15-15h-60.412c-8.284 0-15 6.716-15 15v112.071h-55.794zm366.206 269.735h-30.412v-177.071h30.412zm-125 0h-30.412v-137.071h30.412zm-125 0h-30.412v-97.071h30.412zm138.184 154.929h-56.78v-46.869h56.779v46.869zm197.61-76.869h-452v-48.06h452z"/></svg>