<svg id="Capa_1" enable-background="new 0 0 512 512" height="512" viewBox="0 0 512 512" width="512" xmlns="http://www.w3.org/2000/svg"><g><path d="m497 241h-26.82c-3.545-51.701-25.367-99.822-62.362-136.818-36.996-36.996-85.117-58.818-136.818-62.363v-26.819c0-8.284-6.716-15-15-15s-15 6.716-15 15v26.819c-51.701 3.545-99.822 25.367-136.818 62.362-36.995 36.997-58.817 85.118-62.362 136.819h-26.82c-8.284 0-15 6.716-15 15s6.716 15 15 15h26.82c3.545 51.701 25.367 99.822 62.362 136.818 36.996 36.996 85.117 58.818 136.818 62.362v26.82c0 8.284 6.716 15 15 15s15-6.716 15-15v-26.819c51.701-3.545 99.822-25.367 136.818-62.362 36.996-36.996 58.818-85.117 62.362-136.818h26.82c8.284 0 15-6.716 15-15s-6.716-15.001-15-15.001zm-226 199.091v-25.686c0-8.284-6.716-15-15-15s-15 6.716-15 15v25.686c-89.907-7.26-161.83-79.183-169.091-169.091h25.685c8.284 0 15-6.716 15-15s-6.716-15-15-15h-25.685c7.261-89.908 79.184-161.831 169.091-169.091v25.686c0 8.284 6.716 15 15 15s15-6.716 15-15v-25.686c89.907 7.26 161.83 79.183 169.091 169.091h-25.685c-8.284 0-15 6.716-15 15s6.716 15 15 15h25.685c-7.261 89.908-79.184 161.831-169.091 169.091z"/><path d="m256 144.196c-61.649 0-111.804 50.155-111.804 111.804s50.155 111.804 111.804 111.804 111.804-50.156 111.804-111.804-50.155-111.804-111.804-111.804zm0 193.608c-45.107 0-81.804-36.697-81.804-81.804s36.697-81.804 81.804-81.804 81.804 36.697 81.804 81.804-36.697 81.804-81.804 81.804z"/><path d="m291.854 241.449c-8.284 0-15 6.716-15 15 0 11.499-9.355 20.854-20.854 20.854s-20.854-9.354-20.854-20.854c0-8.284-6.716-15-15-15s-15 6.716-15 15c0 28.041 22.813 50.854 50.854 50.854s50.854-22.813 50.854-50.854c0-8.284-6.716-15-15-15z"/></g></svg>