<svg id="Capa_1" enable-background="new 0 0 512 512" height="512" viewBox="0 0 512 512" width="512" xmlns="http://www.w3.org/2000/svg"><g><path d="m497 .14h-241c-8.284 0-15 6.716-15 15v12.057h-226c-8.284 0-15 6.716-15 15v377.796c0 8.284 6.716 15 15 15h182.61v46.868h-4.321c-8.284 0-15 6.716-15 15s6.716 15 15 15h125.422c8.284 0 15-6.716 15-15s-6.716-15-15-15h-4.321v-46.868h182.61c8.284 0 15-6.716 15-15v-404.853c0-8.285-6.716-15-15-15zm-241 168.433c19.021 0 34.496 15.475 34.496 34.496s-15.475 34.496-34.496 34.496-34.496-15.475-34.496-34.496 15.475-34.496 34.496-34.496zm-40.194 118.163c0-10.211 3.834-19.537 10.13-26.632 8.984 4.755 19.212 7.461 30.064 7.461 10.855 0 21.085-2.707 30.07-7.464 6.295 7.095 10.124 16.424 10.124 26.635v40.195h-80.389v-40.195zm92.788-46.406c7.483-10.532 11.902-23.386 11.902-37.26 0-8.011-1.479-15.68-4.161-22.763l22.365-19.577h143.3v166.202h-155.806v-40.195c0-17.783-6.657-34.029-17.6-46.407zm173.406-210.19v55.599 44.991h-148.937c-3.635 0-7.146 1.319-9.88 3.713l-23.861 20.887c-7.905-7.18-17.601-12.412-28.322-14.977v-110.213zm-452 27.056h211v83.157c-28.35 6.781-49.496 32.318-49.496 62.716 0 13.872 4.417 26.723 11.897 37.254-10.941 12.38-17.595 28.631-17.595 46.413v40.195h-155.806zm254.39 424.664h-56.78v-46.868h56.779v46.868zm197.61-76.868h-452v-48.061h452z"/><path d="m434.917 97.756c8.141 0 15.94-7.085 15.564-15.403-.378-8.345-6.839-15.403-15.564-15.403-8.141 0-15.94 7.085-15.564 15.403.378 8.345 6.838 15.403 15.564 15.403z"/><path d="m376.5 97.756c8.141 0 15.94-7.085 15.564-15.403-.378-8.345-6.839-15.403-15.564-15.403-8.141 0-15.94 7.085-15.564 15.403.378 8.345 6.839 15.403 15.564 15.403z"/><path d="m318.083 97.756c8.141 0 15.94-7.085 15.564-15.403-.378-8.345-6.839-15.403-15.564-15.403-8.141 0-15.94 7.085-15.564 15.403.378 8.345 6.839 15.403 15.564 15.403z"/></g></svg>