<svg id="Capa_1" enable-background="new 0 0 512 512" height="512" viewBox="0 0 512 512" width="512" xmlns="http://www.w3.org/2000/svg"><path d="m417.268 190.377v-29.367c0-30.314-8.521-59.907-24.642-85.579s-39.075-46.202-66.38-59.37c-44.241-21.336-95.027-21.417-139.34-.223l-.683.326c-27.43 13.12-50.498 33.652-66.71 59.376s-24.781 55.393-24.781 85.799v29.038c0 51.122 24.116 98.843 64.909 129.234v27.176c-22.995 4.019-40.534 24.116-40.534 48.244 0 19.755 11.76 36.803 28.642 44.545-3.811 6.966-5.981 14.951-5.981 23.436 0 27.012 21.976 48.988 48.988 48.988h125.083c27.012 0 48.988-21.976 48.988-48.988 0-8.484-2.17-16.47-5.981-23.436 16.881-7.742 28.642-24.791 28.642-44.546 0-22.198-14.846-40.983-35.126-46.978v-28.441c40.791-30.391 64.906-78.112 64.906-129.234zm-292.541 0v-29.038c0-24.739 6.972-48.878 20.162-69.807 13.19-20.93 31.959-37.634 54.28-48.311l.683-.326c36.05-17.242 77.369-17.175 113.364.183 22.216 10.714 40.891 27.417 54.008 48.304s20.049 44.964 20.049 69.628v29.367c0 43.817-21.78 84.571-58.26 109.017-4.155 2.785-6.649 7.457-6.649 12.459v34.19h-51.67v-120.923l43.905-62.047c4.784-6.761 3.182-16.12-3.579-20.905s-16.121-3.183-20.906 3.579l-34.19 48.317-33.345-48.188c-4.713-6.811-14.055-8.512-20.867-3.799-6.811 4.713-8.512 14.055-3.799 20.867l42.785 61.832v121.267h-51.064v-34.19c0-5.002-2.494-9.674-6.649-12.459-36.479-24.446-58.258-65.2-58.258-109.017zm191.111 291.628h-125.083c-10.473 0-18.993-8.52-18.993-18.993s8.52-18.993 18.993-18.993h125.083c10.473 0 18.993 8.52 18.993 18.993s-8.521 18.993-18.993 18.993zm22.66-67.981h-170.403c-10.473 0-18.993-8.521-18.993-18.994s8.52-18.993 18.993-18.993h170.403c10.473 0 18.993 8.521 18.993 18.994s-8.52 18.993-18.993 18.993z"/></svg>