<svg id="Capa_1" enable-background="new 0 0 512 512" height="512" viewBox="0 0 512 512" width="512" xmlns="http://www.w3.org/2000/svg"><g><path d="m261.475 238.061h-246.475c-8.284 0-15 6.716-15 15v184.718c0 8.284 6.716 15 15 15h77.763v29.082h-.723c-8.284 0-15 6.716-15 15s6.716 15 15 15h95.791c8.284 0 15-6.716 15-15s-6.716-15-15-15h-.6v-29.082h74.244c8.284 0 15-6.716 15-15v-184.718c0-8.285-6.716-15-15-15zm-138.712 243.799v-29.082h34.468v29.082zm123.712-59.082h-216.475v-31.61h216.475zm0-61.61h-216.475v-93.107h216.475z"/><path d="m488.085 126.972c10.376-13.323 16.579-30.042 16.579-48.191 0-43.362-35.312-78.641-78.716-78.641-43.403 0-78.715 35.278-78.715 78.641 0 18.153 6.205 34.875 16.585 48.199-14.802 15.451-23.921 36.383-23.921 59.419v110.898c0 8.284 6.716 15 15 15h142.103c8.284 0 15-6.716 15-15v-110.899c0-23.036-9.115-43.973-23.915-59.426zm-62.137-96.832c26.862 0 48.716 21.82 48.716 48.641s-21.854 48.64-48.716 48.64c-26.861 0-48.715-21.819-48.715-48.64s21.854-48.641 48.715-48.641zm56.052 252.157h-112.103v-95.898c0-15.486 6.322-29.516 16.516-39.66 11.628 6.778 25.13 10.682 39.535 10.682s27.907-3.904 39.535-10.681c10.193 10.145 16.517 24.173 16.517 39.658z"/><path d="m269.122 29.774c-6.02-5.691-15.513-5.424-21.205.597-5.69 6.02-5.423 15.514.597 21.204l12.912 12.205h-123.189c-8.284 0-15 6.716-15 15v77.779l-12.261-12.941c-5.699-6.013-15.191-6.269-21.206-.571-6.014 5.698-6.27 15.192-.572 21.206l38.472 40.603c2.833 2.989 6.77 4.683 10.889 4.683 4.118 0 8.056-1.693 10.888-4.683l37.828-39.923c5.698-6.014 5.442-15.508-.571-21.206-6.012-5.697-15.508-5.44-21.205.571l-12.262 12.941v-63.459h107.507l-12.91 12.204c-6.021 5.69-6.287 15.185-.596 21.205 2.95 3.121 6.922 4.695 10.903 4.695 3.697 0 7.402-1.359 10.302-4.1l40.65-38.427c2.997-2.833 4.695-6.776 4.695-10.9 0-4.125-1.698-8.067-4.696-10.9z"/></g></svg>