<svg id="Capa_1" enable-background="new 0 0 512 512" height="512" viewBox="0 0 512 512" width="512" xmlns="http://www.w3.org/2000/svg"><g><path d="m253.655 84.152h-167.365c-8.284 0-15 6.716-15 15s6.716 15 15 15h167.365c8.284 0 15-6.716 15-15s-6.716-15-15-15z"/><path d="m253.655 163.535h-167.365c-8.284 0-15 6.716-15 15s6.716 15 15 15h167.365c8.284 0 15-6.716 15-15s-6.716-15-15-15z"/><path d="m253.655 242.919h-167.365c-8.284 0-15 6.716-15 15s6.716 15 15 15h167.365c8.284 0 15-6.716 15-15s-6.716-15-15-15z"/><path d="m497 13.668h-482c-8.284 0-15 6.716-15 15v377.796c0 8.284 6.716 15 15 15h182.61v46.868h-4.321c-8.284 0-15 6.716-15 15s6.716 15 15 15h125.422c8.284 0 15-6.716 15-15s-6.716-15-15-15h-4.321v-46.868h182.61c8.284 0 15-6.716 15-15v-377.796c0-8.284-6.716-15-15-15zm-157.056 262.761h142.056v36.975h-142.056zm142.056-30h-142.056v-202.761h142.056zm-452-202.761h279.944v269.735h-279.944zm254.39 424.664h-56.78v-46.868h56.779v46.868zm197.61-76.868h-452v-48.061h452z"/><path d="m389.35 204.012h43.245c8.284 0 15-6.716 15-15s-6.716-15-15-15h-43.245c-8.284 0-15 6.716-15 15s6.715 15 15 15z"/><path d="m389.35 114.151h43.245c8.284 0 15-6.716 15-15s-6.716-15-15-15h-43.245c-8.284 0-15 6.716-15 15s6.715 15 15 15z"/></g></svg>