<svg id="Capa_1" enable-background="new 0 0 512 512" height="512" viewBox="0 0 512 512" width="512" xmlns="http://www.w3.org/2000/svg"><g><path d="m465.965 30.235h-68.986v-15.235c0-8.284-6.716-15-15-15s-15 6.716-15 15v15.235h-53.985v-15.235c0-8.284-6.716-15-15-15s-15 6.716-15 15v15.235h-53.986v-15.235c0-8.284-6.716-15-15-15s-15 6.716-15 15v15.235h-53.985v-15.235c0-8.284-6.716-15-15-15s-15 6.716-15 15v15.235h-68.988c-8.284 0-15 6.716-15 15v451.765c0 8.284 6.716 15 15 15h419.93c8.284 0 15-6.716 15-15v-451.765c0-8.284-6.716-15-15-15zm-15 451.765h-389.93v-421.765h53.986v15.235c0 8.284 6.716 15 15 15s15-6.716 15-15v-15.235h53.985v15.235c0 8.284 6.716 15 15 15s15-6.716 15-15v-15.235h53.986v15.235c0 8.284 6.716 15 15 15s15-6.716 15-15v-15.235h53.985v15.235c0 8.284 6.716 15 15 15s15-6.716 15-15v-15.235h53.986v421.765z"/><path d="m343.933 418.331h-175.866c-8.284 0-15 6.716-15 15s6.716 15 15 15h175.865c8.284 0 15-6.716 15-15s-6.715-15-14.999-15z"/><path d="m256 127.281c-70.535 0-127.92 57.384-127.92 127.919s57.385 127.92 127.92 127.92 127.92-57.385 127.92-127.92-57.385-127.919-127.92-127.919zm15 31.148c42.007 6.485 75.287 39.764 81.772 81.771h-81.772zm-15 194.691c-53.993 0-97.92-43.927-97.92-97.92 0-48.894 36.021-89.531 82.92-96.771v96.771c0 8.284 6.716 15 15 15h96.772c-7.241 46.899-47.878 82.92-96.772 82.92z"/></g></svg>