<svg id="Capa_1" enable-background="new 0 0 512 512" height="512" viewBox="0 0 512 512" width="512" xmlns="http://www.w3.org/2000/svg"><g><path d="m497 13.668h-482c-8.284 0-15 6.716-15 15v377.796c0 8.284 6.716 15 15 15h182.61v46.868h-4.321c-8.284 0-15 6.716-15 15s6.716 15 15 15h125.422c8.284 0 15-6.716 15-15s-6.716-15-15-15h-4.321v-46.868h182.61c8.284 0 15-6.716 15-15v-377.796c0-8.284-6.716-15-15-15zm-467 30h452v269.735h-452zm254.39 424.664h-56.78v-46.868h56.779v46.868zm197.61-76.868h-452v-48.061h452z"/><path d="m393.61 86.564h-260.602c-8.284 0-15 6.716-15 15s6.716 15 15 15h260.602c8.284 0 15-6.716 15-15s-6.715-15-15-15z"/><path d="m393.61 240.507h-97.61c-8.284 0-15 6.716-15 15s6.716 15 15 15h97.61c8.284 0 15-6.716 15-15s-6.715-15-15-15z"/><path d="m393.61 168.138h-97.61c-8.284 0-15 6.716-15 15s6.716 15 15 15h97.61c8.284 0 15-6.716 15-15s-6.715-15-15-15z"/><path d="m236 168.138h-102.992c-8.284 0-15 6.716-15 15v72.369c0 8.284 6.716 15 15 15h102.992c8.284 0 15-6.716 15-15v-72.369c0-8.284-6.716-15-15-15zm-15 72.369h-72.992v-42.369h72.992z"/></g></svg>