<svg id="Capa_1" enable-background="new 0 0 512 512" height="512" viewBox="0 0 512 512" width="512" xmlns="http://www.w3.org/2000/svg"><g><path d="m497 0h-482c-8.284 0-15 6.716-15 15v482c0 8.284 6.716 15 15 15h482c8.284 0 15-6.716 15-15v-482c0-8.284-6.716-15-15-15zm-15 30v61.715h-61.715v-61.715zm-452 0h360.285v61.715h-360.285zm452 452h-452v-360.285h452z"/><path d="m88.887 280.679h104.711c8.284 0 15-6.716 15-15v-72.357c0-8.284-6.716-15-15-15h-104.711c-8.284 0-15 6.716-15 15v72.357c0 8.284 6.716 15 15 15zm15-72.358h74.711v42.357h-74.711z"/><path d="m88.887 353.036h104.711c8.284 0 15-6.716 15-15s-6.716-15-15-15h-104.711c-8.284 0-15 6.716-15 15s6.716 15 15 15z"/><path d="m423.113 395.394h-334.226c-8.284 0-15 6.716-15 15s6.716 15 15 15h334.227c8.284 0 15-6.716 15-15s-6.717-15-15.001-15z"/><path d="m241 193.321v150.622c0 8.284 6.716 15 15 15h167.113c8.284 0 15-6.716 15-15v-150.622c0-8.284-6.716-15-15-15h-167.113c-8.284 0-15 6.716-15 15zm30 15h137.113v120.622h-137.113z"/></g></svg>