<svg id="Capa_1" enable-background="new 0 0 512.124 512.124" height="512" viewBox="0 0 512.124 512.124" width="512" xmlns="http://www.w3.org/2000/svg"><g><path d="m51.565 143.398c1.117 0 2.252-.125 3.387-.388l41.869-9.666c8.072-1.863 13.104-9.918 11.241-17.989-1.864-8.073-9.917-13.11-17.99-11.241l-1.821.42c30.753-34.174 71.153-58.089 116.882-68.646 58.826-13.581 119.418-3.442 170.617 28.552 29.331 18.328 53.445 42.36 71.671 71.429 4.402 7.019 13.659 9.141 20.677 4.739 7.019-4.4 9.141-13.657 4.74-20.677-20.659-32.947-47.975-60.178-81.19-80.933-57.994-36.239-126.628-47.726-193.264-32.341-55.466 12.805-104.006 42.966-139.624 86.162l-2.232-9.667c-1.864-8.073-9.917-13.111-17.99-11.241-8.072 1.863-13.104 9.918-11.241 17.989l9.666 41.868c1.601 6.938 7.775 11.63 14.602 11.63z"/><path d="m484.827 422.225-9.666-41.868c-1.863-8.072-9.922-13.113-17.99-11.241l-41.869 9.666c-8.072 1.863-13.104 9.918-11.241 17.989 1.863 8.072 9.915 13.106 17.99 11.241l1.821-.42c-30.753 34.174-71.153 58.089-116.882 68.646-58.825 13.58-119.418 3.442-170.617-28.552-29.775-18.604-54.156-43.066-72.466-72.706-4.354-7.047-13.598-9.229-20.645-4.878-7.048 4.354-9.232 13.598-4.878 20.646 20.754 33.595 48.373 61.312 82.091 82.38 41.202 25.746 87.771 38.997 135.182 38.997 19.323 0 38.788-2.201 58.082-6.656 55.467-12.805 104.006-42.966 139.624-86.162l2.232 9.667c1.602 6.938 7.775 11.63 14.603 11.629 1.117 0 2.252-.125 3.388-.388 8.072-1.864 13.104-9.919 11.241-17.99z"/><path d="m103.47 153.471c-8.284 0-15 6.716-15 15v175.184c0 8.284 6.716 15 15 15h305.184c8.284 0 15-6.716 15-15v-175.184c0-8.284-6.716-15-15-15zm15 30h206.992v145.184h-206.992zm275.184 145.183h-38.192v-145.183h38.192z"/><path d="m266.729 219.047c-8.284 0-15 6.716-15 15v44.031c0 8.284 6.716 15 15 15s15-6.716 15-15v-44.031c0-8.284-6.716-15-15-15z"/><path d="m175.234 219.047c-8.284 0-15 6.716-15 15v44.031c0 8.284 6.716 15 15 15s15-6.716 15-15v-44.031c0-8.284-6.715-15-15-15z"/></g></svg>