<svg id="Capa_1" enable-background="new 0 0 512 512" height="512" viewBox="0 0 512 512" width="512" xmlns="http://www.w3.org/2000/svg"><g><path d="m497 0h-482c-8.284 0-15 6.716-15 15v91.715 390.285c0 8.284 6.716 15 15 15h482c8.284 0 15-6.716 15-15v-482c0-8.284-6.716-15-15-15zm-15 30v61.715h-61.715v-61.715zm-452 0h360.285v61.715h-360.285zm452 452h-452v-360.285h452z"/><path d="m117.728 286.532 63.365-62.263c5.908-5.806 5.992-15.303.186-21.212-5.805-5.908-15.302-5.993-21.213-.186l-74.159 72.869c-2.854 2.804-4.469 6.632-4.486 10.633s1.564 7.843 4.394 10.672l74.158 74.159c2.929 2.929 6.768 4.394 10.606 4.394s7.678-1.465 10.606-4.394c5.858-5.858 5.858-15.355 0-21.213z"/><path d="m330.814 202.963c-5.858 5.857-5.858 15.355 0 21.213l63.458 63.459-63.365 62.263c-5.908 5.806-5.992 15.303-.186 21.212 2.937 2.989 6.816 4.487 10.7 4.487 3.794 0 7.592-1.431 10.513-4.301l74.158-72.869c2.854-2.804 4.469-6.632 4.486-10.633s-1.564-7.843-4.394-10.672l-74.158-74.159c-5.855-5.858-15.353-5.858-21.212 0z"/><path d="m287.083 199.433c-7.808-2.768-16.382 1.316-19.151 9.124l-52.139 147.028c-2.769 7.808 1.316 16.382 9.124 19.15 1.658.588 3.35.867 5.014.867 6.173 0 11.956-3.841 14.138-9.991l52.139-147.028c2.768-7.808-1.317-16.382-9.125-19.15z"/></g></svg>