<svg id="Capa_1" enable-background="new 0 0 512 512" height="512" viewBox="0 0 512 512" width="512" xmlns="http://www.w3.org/2000/svg"><g><path d="m407.647 279.774c-5.435 0-10.645.975-15.479 2.738v-267.512c0-8.227-6.626-14.918-14.852-15l-303.118.001c-4.013-.052-7.857 1.524-10.702 4.341s-4.446 6.655-4.446 10.659v481.999c0 8.284 6.716 15 15 15l305.547-.129c40.446 0 73.352-32.905 73.352-73.351v-113.443c0-24.98-20.322-45.303-45.302-45.303zm-45.479-249.922v234.03c-4.733-1.682-9.824-2.602-15.127-2.602-7.515 0-14.61 1.84-20.856 5.092-7.703-14.044-22.632-23.585-39.75-23.585-5.368 0-10.522.939-15.305 2.661l-.001-71.119c-.001-24.965-20.317-45.276-45.299-45.276-24.975 0-45.295 20.319-45.296 45.294l-.004 101.623h-15.761c-24.975 0-45.294 20.318-45.296 45.293l-.005 61.952h-30.417v-353.065zm-273.117 383.362h34.714l42.466 68.786h-77.18zm333.898 25.306c0 23.904-19.447 43.351-43.352 43.351h-156.061c-13.763 0-26.792-7.282-34.003-19.004l-40.067-65.129.006-76.473c0-8.434 6.862-15.295 15.296-15.295h15.759l.004 45.674c0 .125.002.248.004.371v.179h.005c.291 9.841 7.866 15.142 14.994 15.142h.007c7.168-.003 14.791-5.311 14.991-15.15h.001c0-.013 0-.027 0-.044.002-.106.003-.214.003-.321l-.003-177.47c0-8.434 6.862-15.296 15.31-15.296 8.428 0 15.286 6.854 15.286 15.278l.003 145.461c0 8.284 6.716 15 15 15s15-6.716 15-15l.001-31.704c0-8.437 6.865-15.301 15.302-15.301 8.438 0 15.302 6.864 15.302 15.302v50.195c0 8.284 6.716 15 15 15s15-6.716 15-15v-31.702c0-8.438 6.865-15.303 15.303-15.303 7.691 0 14.057 5.709 15.127 13.109l.176 61.635c0 8.284 6.716 15 15 15s15-6.716 15-15v-40.948c0-8.438 6.865-15.303 15.303-15.303s15.303 6.865 15.303 15.303z"/><path d="m136.806 174.828c8.284 0 15-6.716 15-15 0-38.214 33.213-69.304 74.037-69.304 40.825 0 74.038 31.09 74.038 69.304 0 8.284 6.716 15 15 15s15-6.716 15-15c0-54.756-46.671-99.304-104.038-99.304-57.366 0-104.037 44.548-104.037 99.304 0 8.284 6.716 15 15 15z"/></g></svg>