<svg id="Capa_1" enable-background="new 0 0 512 512" height="512" viewBox="0 0 512 512" width="512" xmlns="http://www.w3.org/2000/svg"><path d="m396.378 0c-63.754 0-115.622 51.906-115.622 115.708 0 19.861 5.028 38.569 13.875 54.917l-38.355 38.355-38.717-38.717c8.726-16.263 13.684-34.84 13.684-54.555.001-63.802-51.867-115.708-115.621-115.708s-115.622 51.906-115.622 115.708 51.868 115.708 115.622 115.708c33.15 0 63.082-14.038 84.184-36.481l41.471 41.471v45.152c-56.693 7.383-100.621 56.02-100.621 114.735 0 63.801 51.868 115.708 115.622 115.708s115.622-51.906 115.622-115.708c0-58.715-43.929-107.353-100.622-114.735v-45.152l41.185-41.184c21.087 22.276 50.907 36.194 83.917 36.194 63.754 0 115.622-51.906 115.622-115.708s-51.87-115.708-115.624-115.708zm-366.378 115.708c0-47.26 38.41-85.708 85.622-85.708s85.622 38.448 85.622 85.708c0 23.647-9.617 45.087-25.141 60.609-5.076-9.719-12.425-17.972-21.299-24.114 6.992-8.521 11.196-19.415 11.196-31.274 0-27.218-22.13-49.361-49.332-49.361s-49.332 22.142-49.332 49.36c0 11.847 4.195 22.73 11.174 31.246-9.285 6.421-16.891 15.155-21.971 25.477-16.333-15.617-26.539-37.603-26.539-61.943zm67.336 5.22c0-10.676 8.672-19.361 19.332-19.361s19.332 8.685 19.332 19.361-8.672 19.361-19.332 19.361-19.332-8.685-19.332-19.361zm-15.423 73.554c5.274-14.341 18.988-24.192 34.756-24.192 15.407 0 28.935 9.502 34.435 23.389-10.819 4.953-22.828 7.737-35.482 7.737-11.964-.001-23.358-2.479-33.709-6.934zm139.455 280.041c5.165-14.461 19.131-24.696 34.909-24.696 15.927 0 29.779 10.087 34.921 24.69-10.673 4.793-22.486 7.482-34.921 7.482-12.431.001-24.239-2.686-34.909-7.476zm15.577-74.057c0-10.676 8.672-19.361 19.332-19.361s19.332 8.686 19.332 19.361-8.672 19.361-19.332 19.361-19.332-8.685-19.332-19.361zm104.953-4.174c0 23.816-9.762 45.387-25.482 60.934-5.082-10.331-12.697-19.076-21.989-25.505 6.983-8.518 11.182-19.405 11.182-31.256 0-27.218-22.13-49.361-49.332-49.361s-49.332 22.144-49.332 49.361c0 11.864 4.207 22.763 11.204 31.285-1.983 1.373-3.907 2.844-5.744 4.437-6.818 5.91-12.322 13.089-16.253 21.054-15.729-15.549-25.497-37.125-25.497-60.949 0-47.259 38.41-85.708 85.622-85.708s85.621 38.449 85.621 85.708zm35.148-275.364c0-10.676 8.672-19.361 19.332-19.361s19.332 8.685 19.332 19.361-8.672 19.361-19.332 19.361-19.332-8.685-19.332-19.361zm-15.275 73.147c5.402-14.097 19.069-23.785 34.607-23.785 15.454 0 29.178 9.716 34.596 23.79-10.587 4.702-22.287 7.335-34.596 7.335-12.313 0-24.016-2.635-34.607-7.34zm94.38-17.082c-5.098-9.977-12.609-18.45-21.68-24.735 7.019-8.529 11.239-19.445 11.239-31.33 0-27.218-22.13-49.361-49.332-49.361s-49.332 22.143-49.332 49.361c0 11.863 4.206 22.76 11.201 31.281-9.077 6.282-16.562 14.774-21.65 24.775-15.927-15.573-25.841-37.283-25.841-61.277 0-47.259 38.41-85.708 85.622-85.708 47.212.001 85.622 38.449 85.622 85.709 0 23.998-9.917 45.711-25.849 61.285z"/></svg>