<svg id="Capa_1" enable-background="new 0 0 512 512" height="512" viewBox="0 0 512 512" width="512" xmlns="http://www.w3.org/2000/svg"><g><path d="m437.02 131.005c-48.353-48.352-112.64-74.981-181.02-74.981s-132.667 26.629-181.02 74.98c-48.351 48.353-74.98 112.641-74.98 181.02v128.951c0 8.284 6.716 15 15 15h482c8.284 0 15-6.716 15-15v-128.951c0-68.379-26.629-132.667-74.98-181.019zm-351.085 32.167 17.657 17.657c2.929 2.929 6.768 4.394 10.606 4.394s7.678-1.464 10.606-4.394c5.858-5.858 5.858-15.355 0-21.213l-17.649-17.649c37.468-32.887 84.096-52.202 133.845-55.44v24.96c0 8.284 6.716 15 15 15s15-6.716 15-15v-24.96c49.749 3.239 96.377 22.553 133.844 55.441l-17.649 17.649c-5.858 5.858-5.858 15.355 0 21.213 2.929 2.929 6.768 4.394 10.606 4.394s7.678-1.465 10.606-4.393l17.657-17.657c32.89 37.469 52.21 84.1 55.448 133.852h-144.205c-6.183-33.59-32.717-60.124-66.307-66.307v-49.565c0-8.284-6.716-15-15-15s-15 6.716-15 15v49.565c-33.59 6.183-60.124 32.717-66.307 66.307h-144.206c3.237-49.754 22.558-96.385 55.448-133.854zm220.586 133.852h-101.042c6.475-21.773 26.674-37.696 50.521-37.696s44.046 15.923 50.521 37.696zm175.479 128.952h-452v-98.951h452z"/><path d="m310.776 361.5h-109.553c-8.284 0-15 6.716-15 15s6.716 15 15 15h109.553c8.284 0 15-6.716 15-15s-6.715-15-15-15z"/></g></svg>