<svg id="Capa_1" enable-background="new 0 0 511.996 511.996" height="512" viewBox="0 0 511.996 511.996" width="512" xmlns="http://www.w3.org/2000/svg"><g><path d="m497.103 23.68c-1.521-4.062-4.726-7.266-8.787-8.787-35.657-13.351-72.387-17.847-106.224-12.996-35.531 5.092-66.924 20.397-90.786 44.259l-16.017 16.016c-.002.002-.003.004-.005.005l-91.208 91.209c-14.215-11.013-31.56-17-49.835-17-21.795 0-42.286 8.487-57.697 23.899l-72.15 72.15c-5.858 5.858-5.858 15.355 0 21.213l7.628 7.628c19.786 19.786 46.041 31.838 73.682 34.187l-6.906 20.919c-1.776 5.38-.369 11.302 3.638 15.309l97.87 97.87c2.858 2.859 6.692 4.394 10.608 4.394 1.572 0 3.159-.248 4.7-.756l20.914-6.904c2.329 27.648 14.322 53.812 34.192 73.681l7.628 7.628c2.929 2.929 6.768 4.394 10.606 4.394s7.678-1.464 10.606-4.394l72.15-72.15c15.412-15.411 23.899-35.902 23.899-57.697 0-18.275-5.987-35.62-17-49.835l91.209-91.209c.002-.002.004-.003.005-.005l16.016-16.017c23.862-23.862 39.167-55.255 44.259-90.786 4.85-33.837.356-70.569-12.995-106.225zm-460.818 219.289 61.471-61.472c9.745-9.745 22.702-15.112 36.484-15.112 10.234 0 20.01 2.965 28.357 8.479l-52.835 52.836c-1.657 1.657-2.903 3.679-3.638 5.904l-10.655 32.277c-21.848-.042-43.029-8.244-59.184-22.912zm158.7 158.843-84.802-84.802 16.796-50.88 118.885 118.885zm150.625-24.057c0 13.782-5.367 26.739-15.112 36.484l-61.472 61.472c-14.723-16.202-22.878-37.312-22.918-59.183l32.283-10.657c2.225-.735 4.248-1.98 5.904-3.638l52.836-52.836c5.514 8.348 8.479 18.124 8.479 28.358zm-71.921-7.341-132.107-132.107 144.314-144.315 132.108 132.108zm206.714-244.767c-4.165 29.06-16.536 54.59-35.776 73.83l-5.409 5.41-132.109-132.108 5.41-5.409c19.24-19.24 44.77-31.611 73.83-35.776 26.858-3.849 56.098-.707 84.97 9.084 9.791 28.871 12.933 58.111 9.084 84.969z"/><path d="m243.227 195.638c-20.162 20.163-20.162 52.969 0 73.132 10.081 10.081 23.323 15.121 36.565 15.121s26.485-5.041 36.566-15.122c20.163-20.162 20.163-52.969 0-73.131-20.162-20.163-52.969-20.163-73.131 0zm51.918 51.918c-8.466 8.466-22.24 8.465-30.705 0s-8.465-22.24 0-30.706c8.465-8.465 22.239-8.466 30.706 0 8.465 8.466 8.465 22.24-.001 30.706z"/></g></svg>