<svg id="Capa_1" enable-background="new 0 0 512 512" height="512" viewBox="0 0 512 512" width="512" xmlns="http://www.w3.org/2000/svg"><path d="m436.968 74.982c-48.338-48.353-112.607-74.982-180.968-74.982s-132.63 26.629-180.968 74.982c-48.337 48.352-74.957 112.639-74.957 181.018s26.62 132.666 74.957 181.018c48.338 48.353 112.607 74.982 180.968 74.982s132.63-26.629 180.968-74.982c48.337-48.352 74.957-112.638 74.957-181.018s-26.62-132.666-74.957-181.018zm-180.968 407.018c-16.847 0-35.406-22.744-49.645-60.839-5.266-14.089-9.772-29.701-13.464-46.479 14.736-6.807 26.015-19.843 30.448-35.717h102.146c-4.298 30.564-10.996 58.531-19.841 82.196-14.238 38.095-32.797 60.839-49.644 60.839zm-140.221-173.035h-79.484c-4.097-17.146-6.22-34.891-6.22-52.965 0-23.804 3.669-47.041 10.712-69.081h113.794c-2.409 22.197-3.661 45.396-3.661 69.081 0 5.116.079 10.2.195 15.266-17.107 6.005-30.424 20.112-35.336 37.699zm53.781-10.843c14.25 0 25.844 11.593 25.844 25.844s-11.594 25.844-25.844 25.844-25.844-11.594-25.844-25.844 11.594-25.844 25.844-25.844zm53.78 10.843c-5.558-19.9-21.875-35.351-42.265-39.643-.091-4.421-.154-8.857-.154-13.322 0-23.799 1.308-47.021 3.825-69.081h101.706c5.71 20.446 22.783 36.186 43.957 39.961.439 9.582.669 19.299.669 29.12 0 18.074-.757 35.813-2.221 52.965zm32.66-278.965c16.847 0 35.406 22.744 49.645 60.839 3.618 9.678 6.873 20.081 9.755 31.083-13.999 6.982-24.665 19.667-28.947 34.998h-97.409c4.229-24.299 10.045-46.641 17.312-66.081 14.238-38.095 32.797-60.839 49.644-60.839zm84.233 167.763c-14.25 0-25.844-11.593-25.844-25.844s11.594-25.844 25.844-25.844 25.844 11.593 25.844 25.844-11.594 25.844-25.844 25.844zm20.071 26.255c16.323-6.31 28.955-20.072 33.71-37.098h77.199c7.043 22.039 10.712 45.276 10.712 69.081 0 18.074-2.123 35.82-6.22 52.965h-116.756c1.405-17.224 2.13-34.954 2.13-52.965 0-10.78-.266-21.454-.775-31.983zm98.863-67.099h-65.153c-6.167-22.08-25.585-38.674-49.108-40.633-3.259-12.737-6.983-24.776-11.16-35.951-6.363-17.024-13.622-31.516-21.586-43.327 38.859 9.9 74.496 30.079 103.592 59.184 17.994 18 32.563 38.508 43.415 60.727zm-362.919-60.727c29.096-29.105 64.733-49.284 103.592-59.184-7.964 11.811-15.223 26.303-21.586 43.327-8.403 22.481-15 48.427-19.61 76.584h-105.811c10.852-22.219 25.421-42.727 43.415-60.727zm-50.515 242.773h70.046c6.023 21.567 24.687 37.903 47.472 40.478 4.063 18.834 9.085 36.388 15.004 52.221 6.363 17.024 13.622 31.516 21.586 43.327-38.859-9.9-74.496-30.079-103.592-59.184-22.27-22.276-39.305-48.388-50.516-76.842zm370.019 76.843c-29.096 29.105-64.733 49.284-103.592 59.184 7.964-11.811 15.223-26.303 21.586-43.327 9.983-26.71 17.423-58.307 22.001-92.699h110.52c-11.211 28.453-28.246 54.565-50.515 76.842z"/></svg>