<svg id="Capa_1" enable-background="new 0 0 512 512" height="512" viewBox="0 0 512 512" width="512" xmlns="http://www.w3.org/2000/svg"><g><path d="m434.958 177.557h-55.851v-54.45c0-67.881-55.225-123.107-123.107-123.107s-123.107 55.226-123.107 123.107v54.45h-55.851c-8.284 0-15 6.716-15 15v304.443c0 8.284 6.716 15 15 15h357.917c8.284 0 15-6.716 15-15v-304.443c-.001-8.284-6.716-15-15.001-15zm-272.065-54.45c0-51.339 41.767-93.107 93.107-93.107s93.107 41.768 93.107 93.107v54.45h-31.949v-54.319c0-33.723-27.436-61.158-61.158-61.158s-61.158 27.436-61.158 61.158v54.319h-31.949zm61.949 54.45v-54.319c0-17.181 13.978-31.158 31.158-31.158s31.158 13.978 31.158 31.158v54.319zm195.116 304.443h-327.916v-274.443h327.917v274.443z"/><path d="m256 258.21c-31.806 0-57.681 25.875-57.681 57.681 0 13.296 4.461 25.887 12.681 36.09v64.365c0 8.284 6.716 15 15 15h60c8.284 0 15-6.716 15-15v-64.365c8.22-10.203 12.681-22.793 12.681-36.09 0-31.805-25.875-57.681-57.681-57.681zm19.455 77.366c-2.851 2.818-4.455 6.659-4.455 10.667v55.104h-30v-55.104c0-4.008-1.604-7.85-4.455-10.667-5.305-5.244-8.227-12.235-8.227-19.684 0-15.264 12.417-27.681 27.681-27.681s27.681 12.417 27.681 27.681c.001 7.449-2.92 14.44-8.225 19.684z"/></g></svg>