<svg id="Capa_1" enable-background="new 0 0 512 512" height="512" viewBox="0 0 512 512" width="512" xmlns="http://www.w3.org/2000/svg"><g><path d="m276.284 134.3c8.284 0 15-6.716 15-15s-6.716-15-15-15h-184.629c-8.284 0-15 6.716-15 15s6.716 15 15 15z"/><path d="m497 202.826h-129.06v-187.826c0-8.284-6.716-15-15-15h-337.94c-8.284 0-15 6.716-15 15v202.889c0 8.284 6.716 15 15 15h44.908v61.285c0 5.934 3.497 11.309 8.922 13.713 1.952.865 4.021 1.287 6.075 1.287 3.655 0 7.263-1.336 10.077-3.887l59.078-53.555v168.982c0 8.284 6.716 15 15 15h188.092l79.865 72.398c2.814 2.552 6.422 3.887 10.077 3.887 2.054 0 4.124-.422 6.075-1.287 5.425-2.404 8.922-7.78 8.922-13.713v-61.285h44.909c8.284 0 15-6.716 15-15v-202.888c0-8.284-6.716-15-15-15zm-422.092.063h-44.908v-172.889h307.94v172.826h-178.879c-4.251 0-8.08 1.776-10.81 4.617l-58.343 52.888v-42.441c0-8.285-6.715-15.001-15-15.001zm407.092 202.826h-44.908c-8.284 0-15 6.716-15 15v42.441l-59.078-53.555c-2.759-2.501-6.35-3.887-10.074-3.887h-178.879v-172.825l307.939-.063z"/><path d="m235.716 307.126c-8.284 0-15 6.716-15 15s6.716 15 15 15h184.63c8.284 0 15-6.716 15-15s-6.716-15-15-15z"/></g></svg>