<svg id="Capa_1" enable-background="new 0 0 512 512" height="512" viewBox="0 0 512 512" width="512" xmlns="http://www.w3.org/2000/svg"><g><path d="m497 .056h-383.214-98.786c-8.284 0-15 6.716-15 15v327.586c0 8.284 6.716 15 15 15h83.789l-.003 44.411c0 2.775.77 5.497 2.224 7.86l42.291 68.745c12.63 20.531 35.45 33.285 59.555 33.285h159.061c40.446 0 73.352-32.905 73.352-73.352v-80.95h61.731c8.284 0 15-6.716 15-15v-327.585c0-8.284-6.716-15-15-15zm-467 327.586v-297.586h68.786v297.586zm375.269 110.95c0 23.904-19.447 43.352-43.352 43.352h-159.061c-13.763 0-26.792-7.282-34.003-19.004l-40.067-65.13.006-76.473c0-8.435 6.862-15.296 15.296-15.296h18.759l.004 45.675c0 .125.001.25.004.374v.173h.005c.291 9.843 7.866 15.144 14.995 15.144h.007c7.168-.003 14.791-5.312 14.991-15.151h.001c0-.013 0-.026 0-.043.002-.106.003-.213.003-.32 0 0-.002-61.199-.008-61.371l.005-116.101c0-8.434 6.862-15.295 15.31-15.295 8.428 0 15.286 6.854 15.286 15.277l.003 145.461c0 8.284 6.716 15 15 15s15-6.716 15-15l.001-31.703c0-8.437 6.864-15.301 15.302-15.301s15.303 6.864 15.303 15.302v50.195c0 8.284 6.716 15 15 15s15-6.716 15-15v-31.701c0-8.438 6.865-15.303 15.303-15.303s15.303 6.865 15.303 15.303v59.441c0 8.284 6.716 15 15 15s15-6.716 15-15v-40.948c0-8.438 6.865-15.303 15.303-15.303s15.303 6.865 15.303 15.303v113.443zm76.731-110.95h-46.731v-2.493c0-24.98-20.322-45.303-45.303-45.303-7.515 0-14.61 1.84-20.855 5.092-7.704-14.042-22.634-23.585-39.75-23.585-7.515 0-14.61 1.84-20.855 5.092-7.703-14.044-22.633-23.585-39.75-23.585-5.368 0-10.521.938-15.304 2.66l-.001-53.233h106.688l-27.062 25.611c-6.017 5.694-6.278 15.188-.584 21.205 2.95 3.117 6.919 4.689 10.897 4.689 3.7 0 7.408-1.361 10.308-4.105l54.882-51.94c2.993-2.833 4.689-6.773 4.689-10.895s-1.696-8.062-4.689-10.895l-53.964-51.071c-6.019-5.695-15.512-5.433-21.205.584-5.694 6.017-5.433 15.511.584 21.205l27.062 25.611h-109.268c-5.315-19.099-22.856-33.161-43.639-33.161-24.976 0-45.295 20.319-45.296 45.294l-.005 101.622h-18.76c-5.369 0-10.52.944-15.303 2.666v-248.651h353.214z"/><path d="m63.995 162.286c-7.846 0-15.363 6.899-15 15 .364 8.127 6.591 15 15 15 7.846 0 15.363-6.899 15-15-.364-8.127-6.591-15-15-15z"/></g></svg>