<svg id="Capa_1" enable-background="new 0 0 512 512" height="512" viewBox="0 0 512 512" width="512" xmlns="http://www.w3.org/2000/svg"><g><path d="m430.723 0h-249.427c-8.284 0-15 6.716-15 15v152.507c-51.364 5.082-91.618 48.531-91.618 101.209 0 28.534 11.816 54.356 30.805 72.845-23.956 20.213-39.205 50.433-39.205 84.158v71.281c0 8.284 6.716 15 15 15h190.219c8.284 0 15-6.716 15-15v-71.281c0-33.725-15.249-63.946-39.203-84.16 18.989-18.489 30.804-44.31 30.804-72.843 0-13.438-2.632-26.269-7.388-38.021h160.014c8.284 0 15-6.716 15-15v-200.695c-.001-8.284-6.717-15-15.001-15zm-174.227 425.719v56.281h-160.219v-56.281c0-27.35 13.787-51.524 34.768-65.978 13.66 6.832 29.058 10.685 45.341 10.685 16.28 0 31.676-3.851 45.333-10.681 20.984 14.453 34.777 38.622 34.777 65.974zm-80.109-85.293c-39.54 0-71.709-32.169-71.709-71.71 0-36.112 26.843-66.039 61.618-70.96v70.636c0 5.811 3.355 11.099 8.613 13.572 2.037.959 4.217 1.428 6.384 1.428 3.427 0 6.822-1.174 9.564-3.442l50.423-41.714c4.369 9.255 6.816 19.586 6.816 30.481.001 39.54-32.168 71.709-71.709 71.709zm239.336-139.732h-170.728c-3.49 0-6.872 1.218-9.562 3.442l-39.138 32.378v-206.514h219.427v170.694z"/><path d="m300.871 171.795c24.788 0 44.955-20.167 44.955-44.956 0-8.284-6.716-15-15-15s-15 6.716-15 15c0 8.247-6.709 14.956-14.955 14.956-8.247 0-14.956-6.709-14.956-14.956 0-8.284-6.716-15-15-15s-15 6.716-15 15c0 24.789 20.167 44.956 44.956 44.956z"/><path d="m330.077 90.472c8.141 0 15.94-7.085 15.564-15.403-.378-8.345-6.839-15.403-15.564-15.403-8.141 0-15.94 7.085-15.564 15.403.378 8.345 6.839 15.403 15.564 15.403z"/><path d="m271.66 90.472c8.141 0 15.94-7.085 15.564-15.403-.378-8.345-6.838-15.403-15.564-15.403-8.141 0-15.94 7.085-15.564 15.403.378 8.345 6.839 15.403 15.564 15.403z"/></g></svg>