<svg id="Capa_1" enable-background="new 0 0 512 512" height="512" viewBox="0 0 512 512" width="512" xmlns="http://www.w3.org/2000/svg"><path d="m497 13.668h-482c-8.284 0-15 6.716-15 15v377.796c0 8.284 6.716 15 15 15h182.61v46.868h-5.321c-8.284 0-15 6.716-15 15s6.716 15 15 15h125.422c8.284 0 15-6.716 15-15s-6.716-15-15-15h-3.321v-46.868h182.61c8.284 0 15-6.716 15-15v-377.796c0-8.284-6.716-15-15-15zm-183.192 30.054c26.727 0 51.854 10.408 70.754 29.308 39.013 39.015 39.013 102.495 0 141.509-39.014 39.013-102.494 39.013-141.508 0-39.014-39.014-39.014-102.494 0-141.509 18.899-18.9 44.026-29.308 70.754-29.308zm-128.158 202.28 24.139-24.139c3.638 4.84 7.649 9.486 12.051 13.888s9.048 8.413 13.888 12.05l-24.14 24.14zm4.726 47.152-20.249 20.249h-51.877l46.188-46.188zm-160.376-249.486h200.777c-3.082 2.565-6.067 5.278-8.937 8.148-38.637 38.637-47.83 95.733-27.591 143.16l-118.426 118.427h-45.823zm197.61 424.664v-46.868h56.779v46.868zm254.39-76.868h-452v-48.061h452zm0-78.061h-269.448l50.062-50.062c16.303 6.957 33.747 10.442 51.193 10.442 33.306 0 66.612-12.678 91.967-38.033 50.71-50.711 50.71-133.224 0-183.935-2.87-2.87-5.855-5.583-8.937-8.148h85.163z"/></svg>