<svg id="Capa_1" enable-background="new 0 0 507 507" height="512" viewBox="0 0 507 507" width="512" xmlns="http://www.w3.org/2000/svg"><g><path d="m224.475 221.81h204.342c6.903 0 12.5-5.597 12.5-12.5v-60.997c0-6.903-5.597-12.5-12.5-12.5h-204.342c-6.041 0-11.081 4.285-12.246 9.981-.167.814-.254 1.656-.254 2.519v60.997c0 .863.087 1.705.254 2.519 1.165 5.696 6.205 9.981 12.246 9.981zm191.842-25h-41.241v-35.997h41.241zm-179.342-35.997h113.101v35.997h-113.101z"/><path d="m99.364 218.148c2.344 2.344 5.523 3.661 8.839 3.661s6.495-1.317 8.839-3.661l60.997-60.997c4.881-4.882 4.881-12.796 0-17.678-4.882-4.881-12.796-4.881-17.678 0l-52.158 52.158-21.181-21.181c-4.882-4.881-12.796-4.881-17.678 0-4.881 4.882-4.881 12.796 0 17.678z"/><path d="m224.475 370.142h204.342c6.903 0 12.5-5.597 12.5-12.5v-60.996c0-6.903-5.597-12.5-12.5-12.5h-204.342c-6.903 0-12.5 5.597-12.5 12.5v60.996c0 6.903 5.596 12.5 12.5 12.5zm191.842-25h-105.619v-35.996h105.619zm-179.342-35.996h48.723v35.996h-48.723z"/><path d="m69.344 367.526c2.441 2.44 5.64 3.661 8.839 3.661s6.398-1.221 8.839-3.661l22.182-22.182 22.182 22.182c2.441 2.44 5.64 3.661 8.839 3.661s6.398-1.221 8.839-3.661c4.881-4.882 4.881-12.796 0-17.678l-22.182-22.182 22.182-22.182c4.881-4.882 4.881-12.796 0-17.678-4.882-4.881-12.796-4.881-17.678 0l-22.182 22.182-22.182-22.182c-4.882-4.881-12.796-4.881-17.678 0-4.881 4.882-4.881 12.796 0 17.678l22.182 22.182-22.182 22.182c-4.881 4.882-4.881 12.797 0 17.678z"/><path d="m494.5 33.326h-482c-6.903 0-12.5 5.597-12.5 12.5v415.348c0 6.903 5.597 12.5 12.5 12.5h482c6.903 0 12.5-5.597 12.5-12.5v-415.348c0-6.903-5.597-12.5-12.5-12.5zm-12.5 415.348h-457v-390.348h457z"/></g></svg>