<svg id="Capa_1" enable-background="new 0 0 512 512" height="512" viewBox="0 0 512 512" width="512" xmlns="http://www.w3.org/2000/svg"><path d="m391.662 279.974c-7.515 0-14.61 1.839-20.855 5.09-7.704-14.038-22.634-23.578-39.75-23.578-7.515 0-14.61 1.839-20.855 5.09-7.703-14.04-22.633-23.578-39.75-23.578-5.368 0-10.522.938-15.305 2.659v-32.247c36.721-37.427 58.609-59.724 60.284-61.408 18.63-17.965 30.35-47.318 29.173-73.095-1.402-30.707-17.563-56.921-43.23-70.121-11.181-5.747-23.773-8.786-36.418-8.786-20.941 0-40.474 8.005-55.097 22.059-14.623-14.054-34.156-22.059-55.096-22.059-12.645 0-25.237 3.039-36.416 8.787-25.667 13.2-41.829 39.414-43.231 70.122-1.176 25.769 10.539 55.118 29.172 73.094.928.933 18.381 18.634 60.26 61.309l-.003 62.858h-21.76c-24.975 0-45.295 20.312-45.296 45.28l-.006 80.693c0 2.775.77 5.495 2.224 7.858l42.291 68.724c12.63 20.525 35.45 33.275 59.555 33.275h162.061c40.446 0 73.352-32.895 73.352-73.329v-113.409c-.001-24.972-20.323-45.288-45.304-45.288zm-266.483-149.495c-12.426-11.94-20.877-33.053-20.095-50.203.906-19.841 10.994-36.596 26.985-44.819 7.053-3.627 14.688-5.466 22.693-5.466 17.375 0 33.198 8.843 42.326 23.656 2.731 4.431 7.565 7.13 12.771 7.13 5.207 0 10.041-2.699 12.771-7.131 9.128-14.812 24.95-23.655 42.326-23.655 8.005 0 15.641 1.839 22.693 5.466 15.99 8.223 26.078 24.979 26.984 44.819.783 17.15-7.668 38.264-20.093 50.2-.272.261-.7.673-39.567 40.282-1.942-23.183-21.428-41.459-45.128-41.459-23.68 0-43.161 18.264-45.121 41.438-38.845-39.587-39.267-39.991-39.545-40.258zm281.786 308.192c0 23.897-19.447 43.338-43.352 43.338h-162.06c-13.763 0-26.792-7.28-34.003-18.998l-40.067-65.11.006-76.449c0-8.432 6.862-15.291 15.296-15.291h21.759l.004 45.661c0 .125.001.25.004.374v.173h.005c.291 9.84 7.866 15.139 14.995 15.139h.007c7.168-.003 14.791-5.31 14.991-15.147h.001c0-.013 0-.026 0-.043.002-.106.003-.213.003-.32l-.004-177.418c0-8.431 6.862-15.29 15.31-15.29 8.428 0 15.285 6.851 15.286 15.273l.003 145.416c0 8.282 6.716 14.995 15 14.995s15-6.714 15-14.995l.001-31.693c0-8.434 6.864-15.296 15.302-15.296s15.303 6.862 15.303 15.297v50.18c0 8.282 6.716 14.995 15 14.995s15-6.714 15-14.995v-31.691c0-8.435 6.865-15.298 15.303-15.298s15.303 6.863 15.303 15.298v59.423c0 8.282 6.716 14.995 15 14.995s15-6.714 15-14.995v-40.936c0-8.435 6.865-15.298 15.303-15.298s15.303 6.863 15.303 15.298v113.408z"/></svg>