<svg id="Capa_1" enable-background="new 0 0 512 512" height="512" viewBox="0 0 512 512" width="512" xmlns="http://www.w3.org/2000/svg"><g><path d="m149.236 111.115v-57.657c0-8.284-6.716-15-15-15h-104.309c-8.284 0-15 6.716-15 15v57.657c-8.25.04-14.927 6.737-14.927 14.996 0 8.284 6.716 15 15 15h134.163c8.284 0 15-6.716 15-15 0-8.259-6.677-14.956-14.927-14.996zm-104.309-.004v-42.653h74.309v42.653z"/><path d="m497.073 443.547v-57.657c0-8.284-6.716-15-15-15h-104.309c-8.284 0-15 6.716-15 15v57.657c-8.25.04-14.927 6.737-14.927 14.996 0 8.284 6.716 15 15 15h134.163c8.284 0 15-6.716 15-15 0-8.26-6.677-14.957-14.927-14.996zm-104.309-.004v-42.653h74.309v42.653z"/><path d="m138.803 389.363c0-31.392-25.445-56.931-56.722-56.931s-56.721 25.54-56.721 56.931c0 11.571 3.466 22.34 9.397 31.334-9.191 11.025-14.201 24.781-14.201 39.311v36.992c0 8.284 6.716 15 15 15h93.051c8.284 0 15-6.716 15-15v-36.991c0-14.507-5.091-28.342-14.207-39.302 5.935-8.997 9.403-19.769 9.403-31.344zm-56.721-26.93c14.734 0 26.722 12.081 26.722 26.931s-11.987 26.931-26.722 26.931-26.722-12.082-26.722-26.932 11.987-26.93 26.722-26.93zm31.525 119.567h-63.051v-21.991c0-7.147 2.37-13.926 6.726-19.456 7.496 3.673 15.911 5.741 24.799 5.741s17.302-2.067 24.798-5.74c4.324 5.505 6.727 12.322 6.727 19.455v21.991z"/><path d="m383.393 179.568h93.051c8.284 0 15-6.716 15-15v-36.991c0-14.59-5.078-28.372-14.202-39.311 5.932-8.995 9.398-19.764 9.398-31.335 0-31.392-25.445-56.931-56.722-56.931s-56.722 25.539-56.722 56.931c0 11.574 3.468 22.346 9.403 31.343-9.116 10.962-14.206 24.805-14.206 39.304v36.991c0 8.284 6.716 14.999 15 14.999zm78.051-30h-63.051v-21.991c0-7.129 2.405-13.949 6.729-19.455 7.496 3.672 15.909 5.739 24.796 5.739 8.891 0 17.307-2.069 24.805-5.744 4.325 5.493 6.72 12.288 6.72 19.46v21.991zm-31.526-119.568c14.734 0 26.722 12.081 26.722 26.931s-11.987 26.931-26.722 26.931-26.722-12.081-26.722-26.931 11.988-26.931 26.722-26.931z"/><path d="m276.398 45.209c-6.016-5.694-15.51-5.435-21.205.584-5.694 6.017-5.433 15.511.584 21.205l8.227 7.786h-44.379c-8.284 0-15 6.716-15 15s6.716 15 15 15h43.778l-8.227 7.786c-6.017 5.694-6.278 15.188-.584 21.205 2.95 3.117 6.919 4.689 10.897 4.689 3.701 0 7.409-1.361 10.308-4.105l35.888-33.965c2.994-2.833 4.689-6.773 4.689-10.895s-1.696-8.062-4.689-10.895z"/><path d="m291.375 407.216h-43.777l8.226-7.785c6.017-5.694 6.278-15.188.584-21.205-5.695-6.017-15.189-6.277-21.205-.584l-35.888 33.965c-2.994 2.833-4.689 6.773-4.689 10.895s1.696 8.062 4.689 10.895l35.288 33.396c2.9 2.745 6.607 4.105 10.308 4.105 3.977 0 7.947-1.572 10.897-4.689 5.694-6.017 5.433-15.511-.584-21.205l-8.227-7.786h44.379c8.284 0 15-6.716 15-15s-6.717-15.002-15.001-15.002z"/><path d="m429.918 214.965c-8.284 0-15 6.716-15 15v43.778l-7.786-8.227c-5.695-6.018-15.188-6.277-21.205-.584-6.017 5.694-6.278 15.188-.584 21.205l33.965 35.889c2.833 2.993 6.773 4.689 10.895 4.689s8.062-1.696 10.895-4.689l33.396-35.288c5.694-6.017 5.433-15.511-.584-21.205-6.016-5.695-15.51-5.435-21.205.584l-7.786 8.227v-44.378c-.001-8.285-6.716-15.001-15.001-15.001z"/><path d="m82.082 302.042c8.284 0 15-6.716 15-15v-43.778l7.786 8.227c2.95 3.117 6.919 4.689 10.897 4.689 3.701 0 7.408-1.361 10.308-4.105 6.017-5.694 6.278-15.188.584-21.205l-33.965-35.889c-2.833-2.993-6.773-4.689-10.895-4.689s-8.062 1.696-10.895 4.689l-33.396 35.289c-5.694 6.017-5.433 15.511.584 21.205 6.016 5.695 15.51 5.435 21.205-.584l7.786-8.227v44.378c.001 8.284 6.716 15 15.001 15z"/></g></svg>