<svg id="Capa_1" enable-background="new 0 0 512 512" height="512" viewBox="0 0 512 512" width="512" xmlns="http://www.w3.org/2000/svg"><g><path d="m375.611 0c-69.645 0-127.177 52.818-134.666 120.5h-129.947c-8.284 0-15 6.716-15 15v32.615c-48.996 7.274-86.709 49.613-86.709 100.601 0 28.535 11.816 54.358 30.807 72.846-23.956 20.213-39.207 50.432-39.207 84.157v71.281c0 8.284 6.716 15 15 15h190.219c8.284 0 15-6.716 15-15v-71.281c0-33.724-15.241-63.953-39.196-84.167 18.985-18.488 30.797-44.307 30.797-72.836 0-50.987-37.714-93.327-86.71-100.601v-17.615h114.948c7.489 67.682 65.021 120.5 134.666 120.5 74.715 0 135.5-60.785 135.5-135.5s-60.787-135.5-135.502-135.5zm-184.504 425.719v56.281h-160.218v-56.281c0-27.349 13.782-51.526 34.761-65.981 13.661 6.834 29.062 10.688 45.348 10.688s31.686-3.854 45.348-10.688c20.979 14.454 34.761 38.631 34.761 65.981zm-8.399-157.003c0 39.541-32.169 71.71-71.71 71.71-39.54 0-71.709-32.169-71.709-71.71 0-39.54 32.169-71.709 71.709-71.709 39.541 0 71.71 32.169 71.71 71.709zm192.903-27.716c-58.173 0-105.5-47.327-105.5-105.5s47.327-105.5 105.5-105.5 105.5 47.327 105.5 105.5-47.327 105.5-105.5 105.5z"/><path d="m423.08 79.045c-6.463-3.323-13.737-5.08-21.038-5.08-9.676 0-18.831 2.959-26.431 8.3-7.6-5.341-16.755-8.3-26.431-8.3-7.301 0-14.575 1.757-21.041 5.082-14.83 7.63-24.162 22.67-24.964 40.233-.659 14.439 5.883 30.876 16.305 40.981 2.313 2.335 41.663 42.463 41.995 42.802.011.012.021.022.032.033.047.048.102.104.143.145 3.652 3.653 8.513 5.718 13.685 5.813.092.002.184.003.276.003s.185-.001.276-.003c5.172-.095 10.032-2.159 13.685-5.813.04-.04.095-.095.142-.143.011-.011.021-.022.031-.033.334-.341 39.654-40.438 41.994-42.801 10.418-10.094 16.967-26.539 16.308-40.984-.802-17.563-10.134-32.603-24.967-40.235zm-12.242 59.699c-.549.526-23.199 23.62-35.227 35.886-12.026-12.265-34.675-35.356-35.215-35.874-4.34-4.171-7.525-12.125-7.252-18.108.306-6.693 3.565-12.272 8.717-14.923 2.271-1.168 4.733-1.76 7.319-1.76 5.605 0 10.712 2.856 13.66 7.642 2.73 4.433 7.564 7.132 12.771 7.132s10.04-2.699 12.771-7.132c2.948-4.785 8.055-7.642 13.66-7.642 2.586 0 5.049.592 7.316 1.758 5.154 2.652 8.414 8.231 8.72 14.925.274 5.983-2.912 13.937-7.24 18.096z"/></g></svg>