<svg id="Capa_1" enable-background="new 0 0 512 512" height="512" viewBox="0 0 512 512" width="512" xmlns="http://www.w3.org/2000/svg"><g><path d="m497 27.336h-70.794v-12.336c0-8.284-6.716-15-15-15h-310.412c-8.284 0-15 6.716-15 15v12.336h-70.794c-8.284 0-15 6.716-15 15v377.795c0 8.284 6.716 15 15 15h182.61v46.869h-4.321c-8.284 0-15 6.716-15 15s6.716 15 15 15h125.422c8.284 0 15-6.716 15-15s-6.716-15-15-15h-4.321v-46.869h182.61c8.284 0 15-6.716 15-15v-377.795c0-8.284-6.716-15-15-15zm-15 30v269.735h-55.794v-269.735zm-366.206-27.336h280.412v297.071h-280.412zm-85.794 27.336h55.794v269.735h-55.794zm254.39 424.664h-56.78v-46.869h56.779v46.869zm197.61-76.869h-452v-48.06h452z"/><path d="m351.843 86.86h-124.434c-8.284 0-15 6.716-15 15s6.716 15 15 15h124.434c8.284 0 15-6.716 15-15s-6.716-15-15-15z"/><path d="m351.843 163.536h-124.434c-8.284 0-15 6.716-15 15s6.716 15 15 15h124.434c8.284 0 15-6.716 15-15s-6.716-15-15-15z"/><path d="m351.843 240.211h-124.434c-8.284 0-15 6.716-15 15s6.716 15 15 15h124.434c8.284 0 15-6.716 15-15s-6.716-15-15-15z"/><path d="m160.157 240.211c-7.846 0-15.363 6.899-15 15 .364 8.127 6.591 15 15 15 7.846 0 15.363-6.899 15-15-.364-8.127-6.591-15-15-15z"/><path d="m160.157 163.535c-7.846 0-15.363 6.899-15 15 .364 8.127 6.591 15 15 15 7.846 0 15.363-6.899 15-15-.364-8.127-6.591-15-15-15z"/><path d="m160.157 86.86c-7.846 0-15.363 6.899-15 15 .364 8.127 6.591 15 15 15 7.846 0 15.363-6.899 15-15-.364-8.127-6.591-15-15-15z"/></g></svg>