<svg id="Capa_1" enable-background="new 0 0 512.036 512.036" height="512" viewBox="0 0 512.036 512.036" width="512" xmlns="http://www.w3.org/2000/svg"><g><path d="m507.622 209.253c-5.86-5.856-15.357-5.854-21.213.005l-25.529 25.542-25.529-25.542c-5.856-5.859-15.354-5.862-21.213-.005-5.859 5.856-5.862 15.354-.005 21.213l25.539 25.552-25.539 25.552c-5.856 5.859-5.854 15.357.005 21.213 2.929 2.927 6.766 4.391 10.604 4.391 3.84 0 7.68-1.466 10.609-4.396l25.529-25.542 25.529 25.542c2.929 2.931 6.769 4.396 10.609 4.396 3.837 0 7.675-1.463 10.604-4.391 5.859-5.856 5.862-15.354.005-21.213l-25.539-25.552 25.539-25.552c5.857-5.859 5.854-15.357-.005-21.213z"/><path d="m507.622 414.097c-5.86-5.856-15.357-5.854-21.213.005l-25.529 25.541-25.529-25.541c-5.856-5.859-15.354-5.861-21.213-.005s-5.862 15.354-.005 21.213l25.539 25.552-25.539 25.552c-5.856 5.859-5.854 15.357.005 21.213 2.929 2.927 6.766 4.391 10.604 4.391 3.84 0 7.68-1.466 10.609-4.396l25.529-25.541 25.529 25.541c2.929 2.931 6.769 4.396 10.609 4.396 3.837 0 7.675-1.463 10.604-4.391 5.859-5.856 5.862-15.354.005-21.213l-25.539-25.552 25.539-25.552c5.857-5.859 5.854-15.357-.005-21.213z"/><path d="m302.76 414.097c-5.86-5.856-15.356-5.854-21.213.005l-25.528 25.541-25.528-25.541c-5.856-5.859-15.354-5.862-21.213-.005-5.859 5.856-5.862 15.354-.005 21.213l25.539 25.552-25.539 25.552c-5.856 5.859-5.854 15.357.005 21.213 2.929 2.927 6.766 4.391 10.604 4.391 3.84 0 7.68-1.466 10.609-4.396l25.528-25.541 25.528 25.541c2.929 2.931 6.769 4.396 10.609 4.396 3.837 0 7.675-1.463 10.604-4.391 5.859-5.856 5.862-15.354.005-21.213l-25.539-25.552 25.539-25.552c5.857-5.859 5.854-15.357-.005-21.213z"/><path d="m4.414 97.94c2.929 2.927 6.766 4.391 10.604 4.391 3.84 0 7.68-1.466 10.609-4.396l25.529-25.541 25.529 25.541c2.929 2.931 6.769 4.396 10.609 4.396 3.837 0 7.675-1.464 10.604-4.391 5.859-5.856 5.862-15.354.005-21.213l-25.539-25.553 25.539-25.552c5.856-5.859 5.854-15.357-.005-21.213-5.86-5.856-15.357-5.854-21.213.005l-25.529 25.541-25.529-25.541c-5.856-5.859-15.353-5.862-21.213-.005-5.859 5.856-5.862 15.354-.005 21.213l25.539 25.552-25.539 25.552c-5.857 5.86-5.854 15.357.005 21.214z"/><path d="m460.88 102.33c28.208 0 51.156-22.948 51.156-51.156s-22.948-51.156-51.156-51.156-51.156 22.949-51.156 51.156 22.949 51.156 51.156 51.156zm0-72.312c11.666 0 21.156 9.491 21.156 21.156s-9.49 21.156-21.156 21.156-21.156-9.49-21.156-21.156 9.491-21.156 21.156-21.156z"/><path d="m331.396 4.124c-6.016-5.694-15.51-5.433-21.205.584-5.694 6.017-5.433 15.511.584 21.205l10.843 10.262h-65.6c-8.284 0-15 6.716-15 15v189.844h-189.862c-8.284 0-15 6.716-15 15v155.936c-20.911 6.425-36.156 25.917-36.156 48.907 0 28.208 22.948 51.156 51.156 51.156s51.156-22.949 51.156-51.156c0-22.99-15.246-42.482-36.156-48.908v-140.936h189.862c8.284 0 15-6.716 15-15v-189.844h49.955l-10.843 10.262c-6.017 5.694-6.278 15.188-.584 21.205 2.95 3.117 6.919 4.689 10.897 4.689 3.701 0 7.408-1.361 10.308-4.105l38.526-36.461c2.994-2.833 4.689-6.773 4.689-10.895s-1.696-8.062-4.689-10.895zm-280.24 477.894c-11.666 0-21.156-9.491-21.156-21.156s9.49-21.156 21.156-21.156 21.156 9.49 21.156 21.156-9.491 21.156-21.156 21.156z"/></g></svg>