<svg id="Capa_1" enable-background="new 0 0 512 512" height="512" viewBox="0 0 512 512" width="512" xmlns="http://www.w3.org/2000/svg"><path d="m497 280.319h-70.177v-94.399c0-8.284-6.716-15-15-15h-94.587c-5.571-22.737-23.499-40.665-46.236-46.236v-33.163h70.177c8.284 0 15-6.716 15-15v-61.521c0-8.284-6.716-15-15-15h-170.354c-8.284 0-15 6.716-15 15v61.521c0 8.284 6.716 15 15 15h70.177v33.163c-22.737 5.571-40.665 23.499-46.236 46.236h-94.587c-8.284 0-15 6.716-15 15v94.399h-70.177c-8.284 0-15 6.716-15 15v61.521c0 8.284 6.716 15 15 15h70.177v94.399c0 8.284 6.716 15 15 15h55.646v15.761c0 8.284 6.716 15 15 15h170.354c8.284 0 15-6.716 15-15v-15.76h55.646c8.284 0 15-6.716 15-15v-94.4h70.177c8.284 0 15-6.716 15-15v-61.521c0-8.284-6.716-15-15-15zm-311.177-250.319h140.354v31.521h-140.354zm70.177 122.867c18.221 0 33.046 14.821 33.053 33.04 0 .004-.001.009-.001.013s.001.009.001.013c-.007 18.22-14.832 33.041-33.053 33.041-18.226 0-33.054-14.828-33.054-33.054s14.828-33.053 33.054-33.053zm-226 157.452h140.354v31.521h-140.354zm296.177 171.681h-140.354v-31.521h140.354zm70.646-30.76h-40.646v-15.761c0-8.284-6.716-15-15-15h-170.354c-8.284 0-15 6.716-15 15v15.761h-40.646v-79.4h70.177c8.284 0 15-6.716 15-15v-61.521c0-8.284-6.716-15-15-15h-70.177v-79.399h79.587c6.75 27.548 31.638 48.054 61.236 48.054s54.486-20.506 61.236-48.054h79.587v79.399h-70.177c-8.284 0-15 6.716-15 15v61.521c0 8.284 6.716 15 15 15h70.177zm85.177-109.4h-140.354v-31.521h140.354z"/></svg>