<svg id="Capa_1" enable-background="new 0 0 512 512" height="512" viewBox="0 0 512 512" width="512" xmlns="http://www.w3.org/2000/svg"><g><path d="m497 190.815h-24.765c-4.46-14.317-10.385-28.136-17.706-41.293l23.037-22.833c2.832-2.806 4.429-6.625 4.44-10.611s-1.565-7.814-4.381-10.636l-70.809-70.973c-5.838-5.853-15.31-5.876-21.18-.057l-24.813 24.604c-12.717-6.551-26.019-11.882-39.752-15.931v-28.085c0-8.284-6.716-15-15-15h-100.141c-8.284 0-15 6.716-15 15v28.084c-13.733 4.049-27.036 9.38-39.752 15.931l-24.814-24.604c-5.87-5.82-15.342-5.796-21.18.057l-70.809 70.973c-2.816 2.822-4.393 6.649-4.381 10.636s1.609 7.805 4.44 10.611l23.037 22.833c-7.32 13.157-13.246 26.976-17.706 41.293h-24.765c-8.284 0-15 6.716-15 15v100.37c0 8.284 6.716 15 15 15h24.765c4.46 14.317 10.385 28.136 17.706 41.293l-23.037 22.833c-2.832 2.806-4.429 6.625-4.44 10.611s1.565 7.814 4.381 10.636l70.809 70.972c5.838 5.852 15.31 5.877 21.18.058l24.814-24.604c12.715 6.551 26.018 11.882 39.752 15.931v28.086c0 8.284 6.716 15 15 15h100.14c8.284 0 15-6.716 15-15v-28.084c13.733-4.049 27.037-9.38 39.752-15.931l24.813 24.604c5.87 5.82 15.342 5.796 21.18-.057l70.809-70.972c2.816-2.822 4.393-6.649 4.381-10.636s-1.609-7.805-4.44-10.611l-23.037-22.833c7.32-13.158 13.246-26.977 17.706-41.293h24.766c8.284 0 15-6.716 15-15v-100.37c0-8.286-6.716-15.002-15-15.002zm-15 100.37h-21.112c-6.866 0-12.854 4.661-14.541 11.316-4.867 19.21-12.73 37.513-23.373 54.4-3.749 5.948-2.863 13.702 2.13 18.651l20.654 20.471-49.618 49.732-22.142-21.954c-4.816-4.775-12.237-5.726-18.102-2.315-16.629 9.67-34.566 16.843-53.311 21.319-6.752 1.613-11.516 7.648-11.516 14.59v24.605h-70.14v-24.604c0-6.942-4.764-12.977-11.516-14.59-18.746-4.477-36.682-11.649-53.311-21.319-5.865-3.41-13.285-2.461-18.102 2.315l-22.142 21.955-49.618-49.732 20.654-20.471c4.993-4.95 5.879-12.703 2.13-18.651-10.643-16.887-18.506-35.19-23.373-54.4-1.686-6.655-7.675-11.316-14.541-11.316h-21.11v-70.37h21.112c6.866 0 12.854-4.661 14.541-11.316 4.867-19.21 12.73-37.513 23.373-54.4 3.749-5.948 2.863-13.702-2.13-18.651l-20.654-20.472 49.618-49.733 22.142 21.955c4.816 4.776 12.239 5.727 18.102 2.315 16.63-9.67 34.566-16.843 53.31-21.319 6.752-1.612 11.516-7.647 11.516-14.59v-24.606h70.14v24.604c0 6.942 4.764 12.978 11.516 14.59 18.744 4.476 36.68 11.649 53.311 21.319 5.864 3.41 13.285 2.46 18.102-2.315l22.142-21.954 49.618 49.733-20.654 20.472c-4.993 4.949-5.879 12.703-2.13 18.651 10.643 16.887 18.506 35.19 23.373 54.399 1.686 6.656 7.675 11.317 14.541 11.317h21.111z"/><path d="m256 179.735c-41.756 0-75.728 34.212-75.728 76.265s33.972 76.265 75.728 76.265 75.728-34.212 75.728-76.265-33.972-76.265-75.728-76.265zm0 122.53c-25.214 0-45.728-20.754-45.728-46.265s20.514-46.265 45.728-46.265 45.728 20.754 45.728 46.265-20.514 46.265-45.728 46.265z"/><path d="m256 102.908c-83.749 0-151.883 68.677-151.883 153.092s68.134 153.092 151.883 153.092 151.883-68.676 151.883-153.092-68.134-153.092-151.883-153.092zm0 276.184c-67.207 0-121.883-55.219-121.883-123.092s54.676-123.092 121.883-123.092 121.883 55.219 121.883 123.092-54.676 123.092-121.883 123.092z"/></g></svg>