<svg id="Capa_1" enable-background="new 0 0 512 512" height="512" viewBox="0 0 512 512" width="512" xmlns="http://www.w3.org/2000/svg"><g><path d="m256 224.965c8.264 0 14.971-6.684 15-14.947l.369-105.555c.014-3.987-1.561-7.816-4.375-10.641s-6.638-4.412-10.625-4.412h-66.95c-14.941-3.371-25.661-16.674-25.661-32.1v-35.218c0-8.284-6.716-15-15-15h-24.42c-27.154 0-49.246 22.092-49.246 49.246v13.837h-33.961c-22.68 0-41.131 18.451-41.131 41.131v72.528c0 22.68 18.451 41.131 41.131 41.131zm-14.948-30h-38.169v-75.555h38.434zm-211.052-11.131v-72.528c0-6.138 4.993-11.131 11.131-11.131h48.961c8.284 0 15-6.716 15-15v-28.837c0-10.612 8.634-19.246 19.246-19.246h9.42v20.219c0 25.93 15.843 48.727 39.086 58.23l-.277 79.424h-131.436c-6.138 0-11.131-4.993-11.131-11.131z"/><path d="m470.869 287.035h-214.869c-8.264 0-14.971 6.684-15 14.947l-.369 105.555c-.014 3.987 1.561 7.816 4.375 10.641s6.638 4.412 10.625 4.412h66.951c14.941 3.371 25.661 16.674 25.661 32.1v35.219c0 8.284 6.716 15 15 15h24.42c27.154 0 49.246-22.092 49.246-49.246v-13.836h33.96c22.68 0 41.131-18.452 41.131-41.132v-72.528c0-22.681-18.452-41.132-41.131-41.132zm-199.921 30h38.169v75.555h-38.434zm211.052 83.659c0 6.138-4.994 11.132-11.131 11.132h-48.96c-8.284 0-15 6.716-15 15v28.836c0 10.612-8.634 19.246-19.246 19.246h-9.42v-20.219c0-25.93-15.843-48.727-39.086-58.23l.277-79.424h131.435c6.138 0 11.131 4.993 11.131 11.131z"/><path d="m365.853 166.475c2.929 2.929 6.768 4.394 10.606 4.394s7.678-1.465 10.606-4.394l79.679-79.68c5.858-5.857 5.858-15.355 0-21.213-5.857-5.857-15.355-5.857-21.213 0l-69.072 69.073-28.608-28.607c-5.857-5.857-15.355-5.857-21.213 0s-5.858 15.355 0 21.213z"/><path d="m185.761 304.367c-5.857-5.857-15.355-5.857-21.213 0l-29.233 29.233-29.233-29.233c-5.857-5.857-15.355-5.857-21.213 0s-5.858 15.355 0 21.213l29.233 29.233-29.232 29.233c-5.858 5.857-5.858 15.355 0 21.213 2.929 2.929 6.768 4.394 10.606 4.394s7.678-1.465 10.606-4.394l29.233-29.233 29.233 29.233c2.929 2.929 6.768 4.394 10.606 4.394 3.839 0 7.678-1.465 10.606-4.394 5.858-5.857 5.858-15.355 0-21.213l-29.233-29.233 29.233-29.233c5.859-5.857 5.859-15.355.001-21.213z"/></g></svg>