<svg id="Capa_1" enable-background="new 0 0 512 512" height="512" viewBox="0 0 512 512" width="512" xmlns="http://www.w3.org/2000/svg"><g><path d="m423.747 0h-335.494c-8.284 0-15 6.716-15 15v482c0 8.284 6.716 15 15 15h335.494c8.284 0 15-6.716 15-15v-482c0-8.284-6.716-15-15-15zm-15 482h-305.494v-452h305.494z"/><path d="m259.655 123.526h96.76c8.284 0 15-6.716 15-15s-6.716-15-15-15h-96.76c-8.284 0-15 6.716-15 15s6.716 15 15 15z"/><path d="m162.709 119.133c2.929 2.929 6.768 4.394 10.606 4.394s7.678-1.465 10.606-4.394l29.607-29.607c5.858-5.857 5.858-15.355 0-21.213-5.857-5.857-15.355-5.857-21.213 0l-19.001 19.001-7.124-7.124c-5.857-5.857-15.355-5.857-21.213 0s-5.858 15.355 0 21.213z"/><path d="m356.415 158.282h-183.2c-8.284 0-15 6.716-15 15s6.716 15 15 15h183.2c8.284 0 15-6.716 15-15s-6.716-15-15-15z"/><path d="m320.496 294.22c0-35.563-28.933-64.496-64.496-64.496s-64.496 28.933-64.496 64.496c0 13.876 4.419 26.731 11.903 37.263-10.943 12.377-17.602 28.622-17.602 46.404v55.194c0 8.284 6.716 15 15 15h110.389c8.284 0 15-6.716 15-15v-55.194c0-17.782-6.654-34.034-17.595-46.413 7.48-10.531 11.897-23.383 11.897-37.254zm-64.496-34.496c19.021 0 34.496 15.475 34.496 34.496s-15.475 34.496-34.496 34.496-34.496-15.475-34.496-34.496 15.475-34.496 34.496-34.496zm40.194 158.357h-80.389v-40.194c0-10.211 3.834-19.537 10.13-26.632 8.984 4.755 19.212 7.461 30.064 7.461 10.855 0 21.085-2.707 30.071-7.464 6.295 7.095 10.124 16.425 10.124 26.635z"/></g></svg>