<svg id="Capa_1" enable-background="new 0 0 512 512" height="512" viewBox="0 0 512 512" width="512" xmlns="http://www.w3.org/2000/svg"><g><path d="m497 13.668h-482c-8.284 0-15 6.716-15 15v377.796c0 8.284 6.716 15 15 15h182.61v46.868h-4.321c-8.284 0-15 6.716-15 15s6.716 15 15 15h125.422c8.284 0 15-6.716 15-15s-6.716-15-15-15h-4.321v-46.868h182.61c8.284 0 15-6.716 15-15v-377.796c0-8.284-6.716-15-15-15zm-467 30h452v269.735h-452zm254.39 424.664h-56.78v-46.868h56.779v46.868zm197.61-76.868h-452v-48.061h452z"/><path d="m330.803 106.539c-8.284 0-15 6.716-15 15v113.993c0 8.284 6.716 15 15 15s15-6.716 15-15v-113.993c0-8.284-6.716-15-15-15z"/><path d="m260.407 106.539c-8.284 0-15 6.716-15 15v78.357c0 5.245-1.504 12.023-13.232 17.931-3.613 1.82-7.545 2.705-12.017 2.705-.016 0-.03 0-.045 0-4.885-.007-9.122-1.2-12.957-3.65-9.096-5.811-10.959-10.96-10.959-16.903v-78.439c0-8.284-6.716-15-15-15s-15 6.716-15 15v78.439c0 17.476 8.347 31.668 24.808 42.185 8.669 5.539 18.449 8.354 29.068 8.369h.082c9.142 0 17.727-1.989 25.515-5.912 24.578-12.378 29.737-31.153 29.737-44.724v-78.357c0-8.285-6.716-15.001-15-15.001z"/></g></svg>