<svg id="Capa_1" enable-background="new 0 0 512 512" height="512" viewBox="0 0 512 512" width="512" xmlns="http://www.w3.org/2000/svg"><g><path d="m497 13.668h-482c-8.284 0-15 6.716-15 15v377.796c0 8.284 6.716 15 15 15h182.61v46.868h-4.321c-8.284 0-15 6.716-15 15s6.716 15 15 15h125.422c8.284 0 15-6.716 15-15s-6.716-15-15-15h-4.321v-46.868h182.61c8.284 0 15-6.716 15-15v-377.796c0-8.284-6.716-15-15-15zm-467 30h452v269.735h-452zm254.39 424.664h-56.78v-46.868h56.779v46.868zm197.61-76.868h-452v-48.061h452z"/><path d="m226.3 106.539c-8.284 0-15 6.716-15 15v78.357c0 5.245-1.504 12.023-13.23 17.93-3.614 1.821-7.547 2.706-12.019 2.706-.016 0-.03 0-.045 0-4.885-.007-9.122-1.2-12.957-3.65-9.095-5.811-10.958-10.959-10.958-16.903v-78.439c0-8.284-6.716-15-15-15s-15 6.716-15 15v78.439c0 17.476 8.347 31.669 24.807 42.185 8.669 5.539 18.449 8.354 29.068 8.369h.082c9.142 0 17.727-1.989 25.517-5.912 24.576-12.379 29.735-31.153 29.735-44.724v-78.357c0-8.285-6.716-15.001-15-15.001z"/><path d="m373.548 109.276c-6.772-4.771-16.131-3.148-20.901 3.624l-27.881 39.577-27.836-39.569c-4.767-6.775-14.123-8.402-20.899-3.638-6.775 4.767-8.404 14.123-3.638 20.899l34.02 48.36-34.071 48.364c-4.771 6.772-3.148 16.13 3.624 20.901 2.626 1.85 5.641 2.738 8.626 2.738 4.714 0 9.354-2.216 12.275-6.362l27.881-39.577 27.836 39.569c2.921 4.151 7.564 6.37 12.281 6.37 2.982 0 5.994-.887 8.618-2.732 6.775-4.767 8.404-14.123 3.638-20.899l-34.02-48.36 34.071-48.364c4.771-6.772 3.148-16.129-3.624-20.901z"/></g></svg>