<svg id="Capa_1" enable-background="new 0 0 512 512" height="512" viewBox="0 0 512 512" width="512" xmlns="http://www.w3.org/2000/svg"><g><path d="m405.037 123.136c-8.284 0-15 6.716-15 15v30.581h-130.887v-30.581c0-8.284-6.716-15-15-15s-15 6.716-15 15v30.581h-130.888v-30.581c0-8.284-6.716-15-15-15s-15 6.716-15 15v45.581c0 8.284 6.716 15 15 15h145.888v35.463c-37.239 7.05-65.495 39.814-65.495 79.072 0 18.711 6.435 35.936 17.184 49.621-15.295 15.843-24.724 37.383-24.724 61.091v73.036c0 8.284 6.716 15 15 15h146.072c8.284 0 15-6.716 15-15v-73.036c0-23.708-9.427-45.252-24.722-61.095 10.747-13.684 17.181-30.908 17.181-49.616 0-39.258-28.256-72.022-65.495-79.072v-35.463h145.887c8.284 0 15-6.716 15-15v-45.581c-.001-8.285-6.717-15.001-15.001-15.001zm-102.851 358.864h-116.072v-58.036c0-16.158 6.648-30.778 17.342-41.303 11.949 7.033 25.853 11.086 40.693 11.086 14.844 0 28.751-4.055 40.703-11.092 10.69 10.529 17.333 25.153 17.333 41.308v58.037zm-7.541-168.748c0 27.843-22.652 50.495-50.495 50.495s-50.495-22.652-50.495-50.495 22.652-50.495 50.495-50.495 50.495 22.652 50.495 50.495z"/><path d="m476.677 4.394c-5.858-5.858-15.355-5.858-21.213 0l-50.427 50.427-19.431-19.431c-5.857-5.857-15.355-5.857-21.213 0-5.857 5.857-5.857 15.355 0 21.213l30.037 30.037c2.929 2.929 6.768 4.394 10.606 4.394s7.678-1.465 10.606-4.394l61.034-61.033c5.859-5.858 5.859-15.356.001-21.213z"/><path d="m86.574 86.64 61.034-61.033c5.858-5.857 5.858-15.355 0-21.213s-15.355-5.858-21.213 0l-50.428 50.427-19.431-19.431c-5.857-5.857-15.355-5.857-21.213 0-5.857 5.857-5.857 15.355 0 21.213l30.038 30.037c2.929 2.929 6.768 4.394 10.606 4.394s7.678-1.465 10.607-4.394z"/><path d="m202.504 87.686c2.929 2.93 6.767 4.394 10.606 4.394 3.838 0 7.678-1.465 10.606-4.394l20.433-20.433 20.433 20.433c2.929 2.929 6.768 4.394 10.606 4.394s7.678-1.465 10.606-4.394c5.858-5.857 5.858-15.355 0-21.213l-20.431-20.433 20.433-20.433c5.858-5.857 5.858-15.355 0-21.213s-15.355-5.858-21.213 0l-20.433 20.433-20.434-20.433c-5.857-5.857-15.355-5.857-21.213 0s-5.858 15.355 0 21.213l20.433 20.433-20.433 20.433c-5.857 5.857-5.857 15.355.001 21.213z"/></g></svg>