<svg id="Capa_1" enable-background="new 0 0 512 512" height="512" viewBox="0 0 512 512" width="512" xmlns="http://www.w3.org/2000/svg"><g><path d="m507.61 66.603c-2.813-2.815-6.63-4.397-10.61-4.397h-172.063v-47.206c0-8.284-6.716-15-15-15h-106.873c-8.284 0-15 6.716-15 15v47.205h-172.814c-8.279 0-14.993 6.708-15 14.988l-.25 315.059c-.003 3.98 1.576 7.798 4.39 10.614 2.813 2.815 6.63 4.397 10.61 4.397h96.738v89.737c0 8.284 6.716 15 15 15h69.027c8.284 0 15-6.716 15-15v-27.531h82.454v27.531c0 8.284 6.716 15 15 15h69.027c8.284 0 15-6.716 15-15v-89.736h104.504c8.279 0 15.243-6.708 15.25-14.988v-315.059c.003-3.98-1.576-7.799-4.39-10.614zm-289.546-36.603h76.872v32.205h-76.872zm-37.298 452h-39.027v-74.736h39.027zm30-42.531v-32.205h82.454v32.205zm151.481 42.531h-39.027v-74.736h39.027zm119.741-104.736h-451.976l.227-285.059h451.75v285.059z"/><path d="m301.937 210.254v-6.429c0-8.284-6.716-15-15-15h-61.873c-8.284 0-15 6.716-15 15v6.429l-39.368-20.064v-52.628c0-8.284-6.716-15-15-15h-61.874c-8.284 0-15 6.716-15 15v61.819c0 8.284 6.716 15 15 15h58.271l39.936 20.354-39.936 20.354h-58.271c-8.284 0-15 6.716-15 15v61.819c0 8.284 6.716 15 15 15h61.873c8.284 0 15-6.716 15-15v-52.628l39.368-20.064v6.429c0 8.284 6.716 15 15 15h61.873c8.284 0 15-6.716 15-15v-7.241l39.368 18.585v52.313c0 8.284 6.716 15 15 15h61.873c8.284 0 15-6.716 15-15v-61.819c0-8.284-6.716-15-15-15h-58.511l-38.686-18.263 38.925-19.838h58.271c8.284 0 15-6.716 15-15v-61.819c0-8.284-6.716-15-15-15h-61.873c-8.284 0-15 6.716-15 15v52.628zm-161.242-25.873h-31.873v-31.819h31.873zm0 132.526h-31.873v-31.819h31.873zm131.242-66.263h-31.873v-31.819h31.873zm99.368 31.838h31.873v31.819h-31.873zm0-129.92h31.873v31.819h-31.873z"/></g></svg>