<svg id="Capa_1" enable-background="new 0 0 512 512" height="512" viewBox="0 0 512 512" width="512" xmlns="http://www.w3.org/2000/svg"><g><path d="m497 58.038h-316.694l-44.444-52.707c-2.85-3.38-7.046-5.331-11.467-5.331h-109.395c-8.284 0-15 6.716-15 15v482c0 8.284 6.716 15 15 15h482c8.284 0 15-6.716 15-15v-423.962c0-8.285-6.716-15-15-15zm-467-28.038h87.422l44.444 52.707c2.85 3.38 7.046 5.331 11.467 5.331h308.667v51.178h-452zm452 452h-452v-312.784h452z"/><path d="m245.54 429.011c2.833 2.994 6.773 4.689 10.895 4.689s8.062-1.696 10.895-4.689l51.071-53.963c5.694-6.017 5.433-15.511-.584-21.205-6.016-5.694-15.51-5.434-21.205.584l-25.612 27.061v-148.973c0-8.284-6.716-15-15-15s-15 6.716-15 15v148.055l-25.611-27.062c-5.695-6.018-15.189-6.278-21.205-.584-6.017 5.694-6.278 15.188-.584 21.205z"/></g></svg>