<svg id="Capa_1" enable-background="new 0 0 512 512" height="512" viewBox="0 0 512 512" width="512" xmlns="http://www.w3.org/2000/svg"><g><path d="m497 0h-482c-8.284 0-15 6.716-15 15v91.663.064 390.273c0 8.284 6.716 15 15 15h482c8.284 0 15-6.716 15-15v-482c0-8.284-6.716-15-15-15zm-15 30v61.663h-61.715v-61.663zm-91.715 0v61.663h-360.285v-61.663zm-360.285 452v-360.273h452v360.273z"/><path d="m88.887 280.775h104.711c8.284 0 15-6.716 15-15v-72.367c0-8.284-6.716-15-15-15h-104.711c-8.284 0-15 6.716-15 15v72.367c0 8.285 6.716 15 15 15zm15-72.367h74.711v42.367h-74.711z"/><path d="m423.113 322.888h-104.711c-8.284 0-15 6.716-15 15v72.367c0 8.284 6.716 15 15 15h104.711c8.284 0 15-6.716 15-15v-72.367c0-8.284-6.716-15-15-15zm-15 72.367h-74.711v-42.367h74.711z"/><path d="m423.113 178.408h-167.113c-8.284 0-15 6.716-15 15v72.367c0 8.284 6.716 15 15 15h167.113c8.284 0 15-6.716 15-15v-72.367c0-8.284-6.716-15-15-15zm-15 72.367h-137.113v-42.367h137.113z"/><path d="m256 322.888h-167.113c-8.284 0-15 6.716-15 15v72.367c0 8.284 6.716 15 15 15h167.113c8.284 0 15-6.716 15-15v-72.367c0-8.284-6.716-15-15-15zm-15 72.367h-137.113v-42.367h137.113z"/></g></svg>